<svg xmlns="http://www.w3.org/2000/svg" xmlns:xlink="http://www.w3.org/1999/xlink" width="500" zoomAndPan="magnify" viewBox="0 0 375 374.999991" height="500" preserveAspectRatio="xMidYMid meet" version="1.0"><defs><g/><clipPath id="3dbaa10378"><path d="M 187.5 0 C 83.945312 0 0 83.945312 0 187.5 C 0 291.054688 83.945312 375 187.5 375 C 291.054688 375 375 291.054688 375 187.5 C 375 83.945312 291.054688 0 187.5 0 Z M 187.5 0 " clip-rule="nonzero"/></clipPath><clipPath id="3256c53bc4"><path d="M 0 0 L 375 0 L 375 375 L 0 375 Z M 0 0 " clip-rule="nonzero"/></clipPath><clipPath id="c9988a41a0"><path d="M 187.5 0 C 83.945312 0 0 83.945312 0 187.5 C 0 291.054688 83.945312 375 187.5 375 C 291.054688 375 375 291.054688 375 187.5 C 375 83.945312 291.054688 0 187.5 0 Z M 187.5 0 " clip-rule="nonzero"/></clipPath><clipPath id="b725f822ce"><rect x="0" width="375" y="0" height="375"/></clipPath><clipPath id="c48370343c"><path d="M 86 49 L 284 49 L 284 237 L 86 237 Z M 86 49 " clip-rule="nonzero"/></clipPath><clipPath id="2cd818be94"><path d="M 106.945312 37.5 L 299.988281 69.9375 L 269.164062 253.367188 L 76.121094 220.929688 Z M 106.945312 37.5 " clip-rule="nonzero"/></clipPath><clipPath id="cd0befd12e"><path d="M 106.945312 37.5 L 299.988281 69.9375 L 269.164062 253.367188 L 76.121094 220.929688 Z M 106.945312 37.5 " clip-rule="nonzero"/></clipPath><clipPath id="eac7dc15b6"><path d="M 88 60.269531 L 224 60.269531 L 224 153 L 88 153 Z M 88 60.269531 " clip-rule="nonzero"/></clipPath><clipPath id="440ad8f289"><path d="M 88 60.269531 L 224 60.269531 L 224 140 L 88 140 Z M 88 60.269531 " clip-rule="nonzero"/></clipPath><clipPath id="35c59c88f5"><path d="M 144 100 L 269 100 L 269 234.269531 L 144 234.269531 Z M 144 100 " clip-rule="nonzero"/></clipPath><clipPath id="25e4c323c1"><path d="M 167 138 L 283.746094 138 L 283.746094 216 L 167 216 Z M 167 138 " clip-rule="nonzero"/></clipPath></defs><g clip-path="url(#3dbaa10378)"><g transform="matrix(1, 0, 0, 1, 0, 0)"><g clip-path="url(#b725f822ce)"><g clip-path="url(#3256c53bc4)"><g clip-path="url(#c9988a41a0)"><rect x="-82.5" width="540" fill="#ff3131" height="539.999987" y="-82.499998" fill-opacity="1"/></g></g></g></g></g><g clip-path="url(#c48370343c)"><g clip-path="url(#2cd818be94)"><g clip-path="url(#cd0befd12e)"><path fill="#e3ff38" d="M 103.65625 97.316406 C 103.871094 96.277344 104.058594 95.363281 104.21875 94.582031 C 104.378906 93.796875 105.1875 92.0625 106.648438 89.375 C 108.105469 86.683594 110.167969 83.484375 112.832031 79.777344 C 115.496094 76.066406 117.828125 73.332031 119.820312 71.566406 C 121.8125 69.800781 123.964844 67.996094 126.28125 66.152344 C 128.59375 64.304688 131.992188 62.105469 136.46875 59.550781 C 140.945312 56.996094 144.421875 55.203125 146.898438 54.171875 C 149.371094 53.144531 153.300781 52.09375 158.683594 51.027344 C 164.0625 49.960938 169.265625 49.535156 174.292969 49.753906 C 179.320312 49.972656 183.875 50.726562 187.953125 52.019531 C 192.035156 53.3125 195.546875 54.941406 198.496094 56.90625 C 201.441406 58.871094 203.800781 60.875 205.566406 62.910156 C 207.335938 64.949219 208.921875 67.585938 210.324219 70.820312 C 211.726562 74.054688 212.777344 76.828125 213.480469 79.148438 C 214.179688 81.464844 215.320312 84.734375 216.894531 88.953125 C 218.472656 93.175781 220.363281 96.960938 222.574219 100.3125 C 224.78125 103.664062 227.664062 106.160156 231.21875 107.796875 C 234.777344 109.4375 238.675781 110.511719 242.917969 111.019531 C 247.160156 111.53125 251.402344 111.816406 255.648438 111.871094 C 259.890625 111.929688 263.578125 112.28125 266.707031 112.925781 C 269.832031 113.566406 271.90625 114.265625 272.929688 115.019531 C 273.953125 115.773438 274.902344 116.648438 275.785156 117.644531 C 276.667969 118.640625 277.785156 120.910156 279.140625 124.449219 C 280.496094 127.988281 281.460938 132.3125 282.042969 137.414062 C 282.625 142.515625 282.941406 147.789062 283 153.234375 C 283.054688 158.679688 283 163.789062 282.835938 168.554688 C 282.671875 173.320312 282.175781 177.703125 281.355469 181.703125 C 280.53125 185.699219 279.390625 189.074219 277.9375 191.828125 C 276.480469 194.578125 274.382812 197.5 271.652344 200.589844 C 268.917969 203.679688 265.402344 206.863281 261.105469 210.148438 C 256.804688 213.429688 252.355469 216.363281 247.746094 218.949219 C 243.140625 221.535156 239.554688 223.332031 236.992188 224.34375 C 234.429688 225.359375 231.832031 226.316406 229.199219 227.226562 C 226.570312 228.132812 222.519531 229.339844 217.046875 230.839844 C 211.578125 232.34375 206.125 233.53125 200.691406 234.40625 C 195.261719 235.28125 189.804688 235.835938 184.324219 236.066406 C 178.84375 236.296875 174.667969 236.34375 171.796875 236.207031 C 168.929688 236.070312 165.589844 235.609375 161.78125 234.824219 C 157.972656 234.042969 153.890625 233.203125 149.53125 232.304688 C 145.171875 231.410156 140.5 230.085938 135.519531 228.335938 C 130.535156 226.585938 126.46875 224.9375 123.320312 223.390625 C 120.171875 221.84375 116.929688 219.773438 113.597656 217.175781 C 110.261719 214.582031 106.761719 211.414062 103.09375 207.671875 C 99.429688 203.925781 96.621094 200.578125 94.671875 197.617188 C 92.726562 194.660156 91.132812 191.390625 89.898438 187.804688 C 88.664062 184.21875 87.835938 181.25 87.414062 178.898438 C 86.992188 176.550781 86.675781 174.128906 86.464844 171.640625 C 86.253906 169.148438 86.214844 166.695312 86.347656 164.277344 C 86.484375 161.859375 86.894531 158.320312 87.582031 153.660156 C 88.269531 149 89.066406 144.457031 89.980469 140.023438 C 90.890625 135.589844 91.648438 131.914062 92.25 128.996094 C 92.847656 126.074219 93.449219 123.164062 94.046875 120.261719 C 94.644531 117.359375 95.496094 114.527344 96.609375 111.765625 C 97.71875 109.003906 98.539062 107 99.066406 105.75 C 99.597656 104.5 100.511719 102.695312 101.8125 100.335938 C 103.113281 97.976562 104.070312 96.226562 104.683594 95.085938 C 105.300781 93.941406 105.816406 93.023438 106.230469 92.328125 C 106.648438 91.632812 107.183594 90.972656 107.835938 90.347656 L 108.8125 89.410156 Z M 103.65625 97.316406 " fill-opacity="1" fill-rule="nonzero"/></g></g></g><g clip-path="url(#eac7dc15b6)"><path fill="#ffffff" d="M 218.472656 112.480469 C 211.042969 116.488281 206.652344 118.601562 197.875 115.898438 C 198 116.449219 198.042969 117.039062 198.085938 117.671875 C 198.171875 121.722656 196.230469 127.675781 194.078125 132.273438 C 193.867188 132.738281 193.613281 133.246094 193.402344 133.667969 C 192.9375 134.554688 192.472656 135.398438 192.050781 136.117188 C 191.628906 136.832031 191.207031 137.464844 190.785156 137.929688 C 187.660156 141.773438 177.40625 148.695312 171.539062 150.253906 C 165.671875 151.816406 159.847656 152.195312 159.085938 152.027344 C 158.328125 151.902344 130.597656 147.597656 126.882812 143.964844 C 126.753906 143.839844 126.671875 143.753906 126.542969 143.585938 C 126.503906 143.542969 126.460938 143.503906 126.417969 143.417969 C 126.332031 143.332031 126.292969 143.25 126.207031 143.164062 C 126.164062 143.082031 126.082031 143.039062 126.039062 142.953125 C 125.953125 142.871094 125.910156 142.785156 125.828125 142.699219 C 125.785156 142.617188 125.699219 142.53125 125.660156 142.445312 C 125.617188 142.363281 125.53125 142.277344 125.488281 142.234375 C 125.40625 142.152344 125.363281 142.023438 125.277344 141.941406 C 125.234375 141.855469 125.195312 141.8125 125.152344 141.730469 C 125.066406 141.601562 124.984375 141.476562 124.941406 141.390625 C 124.898438 141.308594 124.855469 141.265625 124.8125 141.179688 C 124.730469 141.054688 124.644531 140.929688 124.5625 140.757812 C 124.519531 140.714844 124.476562 140.632812 124.433594 140.589844 C 124.351562 140.421875 124.265625 140.292969 124.179688 140.125 C 124.140625 140.082031 124.140625 140.042969 124.097656 139.957031 C 124.011719 139.789062 123.929688 139.621094 123.800781 139.449219 C 123.757812 139.410156 123.757812 139.367188 123.714844 139.324219 C 123.632812 139.15625 123.503906 138.945312 123.421875 138.773438 C 123.421875 138.734375 123.378906 138.691406 123.378906 138.691406 C 123.292969 138.480469 123.167969 138.3125 123.082031 138.101562 C 123.082031 138.058594 123.042969 138.058594 123.042969 138.015625 C 122.914062 137.804688 122.832031 137.59375 122.746094 137.382812 C 122.746094 137.382812 122.746094 137.339844 122.703125 137.339844 C 122.578125 137.128906 122.492188 136.875 122.367188 136.664062 C 122.367188 136.664062 122.367188 136.664062 122.367188 136.621094 C 122.238281 136.371094 122.15625 136.160156 122.027344 135.90625 C 121.902344 135.652344 121.816406 135.398438 121.734375 135.1875 C 121.648438 134.933594 121.523438 134.679688 121.4375 134.429688 L 110.167969 139.367188 C 110.167969 139.367188 105.484375 140.632812 97.296875 136.539062 C 89.105469 132.445312 87.292969 115.941406 89.234375 111.761719 C 91.175781 107.582031 96.578125 101.71875 100.082031 95.175781 C 103.582031 88.632812 106.832031 75.464844 115.023438 72.933594 C 121.226562 70.988281 129.035156 73.183594 132.496094 74.367188 C 132.75 74.113281 132.960938 73.902344 133.171875 73.648438 C 133.171875 73.648438 133.171875 73.648438 133.214844 73.605469 C 133.296875 73.523438 133.425781 73.394531 133.507812 73.3125 C 133.59375 73.183594 133.71875 73.101562 133.804688 72.972656 C 136.714844 69.554688 147.140625 67.191406 155.710938 65.503906 L 165.332031 65.839844 L 171.496094 67.570312 C 171.496094 67.570312 178.882812 62.167969 185 61.324219 C 192.472656 60.269531 197.242188 61.410156 197.242188 61.410156 C 197.242188 61.410156 205.851562 65.503906 206.867188 71.199219 C 207.289062 73.480469 206.78125 76.097656 211.253906 82.851562 C 215.730469 89.605469 221.597656 93.78125 222.609375 96.777344 C 223.707031 99.816406 225.902344 108.46875 218.472656 112.480469 Z M 218.472656 112.480469 " fill-opacity="1" fill-rule="nonzero"/></g><g clip-path="url(#440ad8f289)"><path fill="#000000" d="M 132.496094 74.367188 C 128.949219 77.953125 122.449219 83.738281 122.449219 92.769531 C 122.449219 103.027344 122.199219 111.257812 122.199219 111.257812 C 122.199219 111.257812 119.199219 117.671875 118.734375 122.863281 C 118.484375 125.523438 119.664062 130.082031 121.394531 134.34375 L 110.167969 139.367188 C 110.167969 139.367188 105.484375 140.632812 97.296875 136.539062 C 89.105469 132.445312 87.292969 115.941406 89.234375 111.761719 C 91.175781 107.582031 96.578125 101.71875 100.082031 95.175781 C 103.582031 88.632812 106.832031 75.464844 115.023438 72.933594 C 121.269531 70.988281 129.078125 73.183594 132.496094 74.367188 Z M 222.652344 96.820312 C 221.636719 93.824219 215.769531 89.644531 211.296875 82.894531 C 206.824219 76.140625 207.289062 73.523438 206.90625 71.242188 C 205.851562 65.503906 197.242188 61.410156 197.242188 61.410156 C 197.242188 61.410156 192.429688 60.269531 185 61.324219 C 178.882812 62.210938 171.496094 67.570312 171.496094 67.570312 L 174.449219 68.414062 C 174.449219 68.414062 179.429688 69.175781 182.46875 71.414062 C 185.464844 73.605469 188.25 82.597656 188.757812 89.605469 C 189.265625 96.609375 192.808594 102.476562 192.808594 102.476562 C 192.808594 102.476562 196.609375 110.242188 197.917969 115.898438 C 206.695312 118.601562 211.085938 116.488281 218.515625 112.480469 C 225.902344 108.46875 223.707031 99.816406 222.652344 96.820312 Z M 222.652344 96.820312 " fill-opacity="1" fill-rule="nonzero"/></g><g clip-path="url(#35c59c88f5)"><path fill="#000000" d="M 266.882812 212.722656 C 264.816406 217.238281 252.363281 225.808594 248.058594 229.226562 C 243.753906 232.644531 228.558594 233.699219 223.960938 234.039062 C 219.359375 234.375 196.019531 226.777344 194.414062 225.847656 C 192.640625 224.835938 181.539062 208.25 179.980469 204.367188 C 178.417969 200.480469 179.472656 187.269531 181.964844 180.898438 C 184.453125 174.523438 204.753906 133.5 206.105469 133.160156 C 207.457031 132.824219 212.140625 137.253906 212.140625 137.253906 L 225.097656 156.503906 C 234.890625 157.347656 242.023438 158.949219 242.023438 158.949219 C 242.023438 158.949219 251.691406 149.707031 255.234375 147.34375 C 258.78125 144.9375 265.703125 141.011719 266.421875 142.277344 C 267.136719 143.542969 268.320312 185.457031 268.320312 185.457031 C 268.320312 185.457031 268.910156 208.207031 266.882812 212.722656 Z M 149.253906 111.636719 C 150.5625 111.59375 151.574219 109.652344 151.488281 107.332031 C 151.40625 105.007812 150.265625 103.152344 148.957031 103.195312 C 147.648438 103.238281 146.636719 105.179688 146.71875 107.5 C 146.804688 109.820312 147.902344 111.679688 149.253906 111.636719 Z M 166.050781 109.230469 C 167.359375 108.976562 168.078125 106.949219 167.65625 104.671875 C 167.234375 102.390625 165.839844 100.703125 164.574219 100.957031 C 163.265625 101.210938 162.546875 103.238281 162.96875 105.515625 C 163.390625 107.796875 164.785156 109.441406 166.050781 109.230469 Z M 174.828125 130.542969 C 173.605469 132.570312 171.832031 134.679688 169.679688 135.777344 C 168.5 136.371094 167.023438 136.328125 165.714844 136.199219 C 164.53125 136.074219 163.308594 135.777344 162.253906 135.273438 C 161.871094 135.0625 161.449219 134.851562 161.113281 134.597656 C 161.027344 134.511719 160.945312 134.46875 160.859375 134.386719 C 160.859375 134.34375 160.859375 134.257812 160.859375 134.214844 C 160.773438 131.640625 160.5625 129.066406 160.183594 126.535156 C 160.984375 126.492188 161.828125 126.367188 162.886719 125.859375 C 165.332031 124.679688 167.234375 118.726562 166.429688 117.671875 C 165.628906 116.660156 161.238281 116.617188 158.621094 116.660156 C 156.003906 116.699219 152.714844 118.640625 151.910156 118.769531 C 151.910156 118.769531 151.152344 121.34375 151.488281 122.738281 C 151.867188 124.128906 156.003906 127 157.441406 126.621094 C 157.90625 126.492188 158.367188 126.492188 158.875 126.492188 C 159.214844 128.984375 159.464844 131.515625 159.550781 134.003906 C 159.507812 134.089844 159.464844 134.175781 159.425781 134.257812 C 157.273438 136.160156 154.273438 137.507812 151.363281 136.960938 C 148.832031 136.496094 146.507812 134.640625 145.960938 132.0625 C 145.792969 131.261719 144.566406 131.601562 144.734375 132.402344 C 145.371094 135.398438 148.070312 137.636719 151.023438 138.183594 C 154.273438 138.773438 157.566406 137.464844 160.015625 135.398438 C 160.351562 135.695312 160.773438 135.945312 161.113281 136.117188 C 162.253906 136.75 163.476562 137.171875 164.742188 137.339844 C 166.21875 137.550781 167.992188 137.679688 169.425781 137.171875 C 170.734375 136.707031 171.875 135.777344 172.886719 134.808594 C 173.984375 133.710938 175 132.484375 175.800781 131.136719 C 176.347656 130.503906 175.253906 129.871094 174.828125 130.542969 Z M 174.828125 130.542969 " fill-opacity="1" fill-rule="nonzero"/></g><g clip-path="url(#25e4c323c1)"><path fill="#ffffff" d="M 198.253906 159.625 C 198.425781 158.316406 206.316406 141.730469 206.316406 141.730469 L 207.710938 138.773438 C 208.257812 138.902344 212.4375 145.570312 212.4375 145.570312 C 212.4375 145.570312 216.152344 151.523438 218.386719 155.277344 C 220.582031 159.078125 218.429688 158.484375 216.910156 159.160156 C 216.402344 159.371094 209.652344 160.003906 208.171875 159.921875 C 206.695312 159.835938 198.085938 160.933594 198.253906 159.625 Z M 248.945312 164.3125 C 250.59375 165.367188 253.925781 167.601562 256.078125 168.785156 C 258.230469 169.964844 262.917969 171.613281 262.917969 171.613281 C 262.917969 171.613281 264.308594 152.492188 264.265625 152.027344 C 264.226562 151.5625 263.550781 147.640625 262.707031 147.851562 C 261.863281 148.0625 245.484375 161.1875 245.484375 161.1875 C 245.484375 161.1875 247.34375 163.253906 248.945312 164.3125 Z M 219.148438 189.464844 C 219.527344 187.863281 219.148438 186.386719 218.261719 186.214844 C 217.375 186.046875 216.402344 187.144531 216.023438 188.75 C 215.644531 190.351562 216.023438 191.828125 216.910156 192 C 217.753906 192.210938 218.769531 191.070312 219.148438 189.464844 Z M 234.34375 189.59375 C 233.539062 189.425781 232.613281 190.480469 232.273438 191.957031 C 231.9375 193.433594 232.273438 194.828125 233.117188 194.996094 C 233.960938 195.164062 234.847656 194.109375 235.1875 192.632812 C 235.523438 191.113281 235.1875 189.761719 234.34375 189.59375 Z M 224.59375 206.179688 C 225.308594 206.519531 226.617188 205.167969 227.589844 204.449219 C 228.558594 203.730469 229.742188 201.578125 229.445312 200.988281 C 229.152344 200.398438 226.070312 199.890625 224.972656 199.511719 C 223.875 199.089844 221.597656 199.808594 220.878906 199.976562 C 218.9375 200.441406 220.414062 202.972656 221.089844 203.859375 C 221.765625 204.703125 223.832031 205.886719 224.59375 206.179688 Z M 230.753906 209.894531 C 230.796875 211.246094 229.613281 212.425781 228.265625 212.597656 C 226.746094 212.765625 225.308594 211.75 224.550781 210.484375 C 224.296875 210.0625 223.707031 210.0625 223.453125 210.484375 C 223.15625 210.992188 222.777344 211.710938 222.101562 211.835938 C 221.425781 211.960938 220.5 211.5 219.90625 211.203125 C 218.597656 210.484375 217.628906 209.261719 217.839844 207.742188 C 217.921875 206.941406 216.65625 206.941406 216.574219 207.742188 C 216.320312 209.808594 217.796875 211.625 219.613281 212.46875 C 220.5 212.890625 221.597656 213.3125 222.566406 213.058594 C 223.199219 212.890625 223.664062 212.46875 224.085938 211.921875 C 225.183594 213.230469 226.871094 214.074219 228.644531 213.820312 C 230.542969 213.523438 232.105469 211.835938 232.0625 209.894531 C 232.019531 209.050781 230.753906 209.050781 230.753906 209.894531 Z M 208.132812 196.769531 C 198.464844 194.617188 188.714844 192.546875 179.007812 190.605469 C 176.222656 190.058594 173.480469 189.507812 170.695312 189.003906 C 169.890625 188.832031 169.554688 190.058594 170.355469 190.226562 C 180.105469 192.082031 189.8125 194.066406 199.519531 196.175781 C 202.265625 196.769531 205.050781 197.402344 207.792969 197.992188 C 208.597656 198.160156 208.933594 196.9375 208.132812 196.769531 Z M 207.246094 200.101562 C 197.117188 198.5 186.902344 197.824219 176.644531 198.035156 C 173.773438 198.117188 170.863281 198.246094 167.992188 198.457031 C 167.191406 198.5 167.191406 199.765625 167.992188 199.722656 C 178.078125 198.964844 188.210938 199.089844 198.296875 200.144531 C 201.167969 200.441406 204.078125 200.820312 206.90625 201.285156 C 207.710938 201.453125 208.046875 200.230469 207.246094 200.101562 Z M 205.261719 204.492188 C 195.679688 203.691406 186.015625 204.367188 176.644531 206.519531 C 173.984375 207.109375 171.367188 207.867188 168.792969 208.671875 C 168.035156 208.925781 168.371094 210.148438 169.132812 209.894531 C 178.207031 206.941406 187.703125 205.421875 197.199219 205.421875 C 199.902344 205.421875 202.558594 205.503906 205.261719 205.757812 C 206.0625 205.84375 206.0625 204.578125 205.261719 204.492188 Z M 282.628906 194.867188 C 272.707031 195.964844 262.875 197.402344 253.082031 199.214844 C 250.296875 199.722656 247.511719 200.269531 244.726562 200.863281 C 243.921875 201.03125 244.261719 202.253906 245.0625 202.085938 C 254.726562 200.058594 264.476562 198.414062 274.269531 197.105469 C 277.054688 196.726562 279.84375 196.386719 282.628906 196.09375 C 283.429688 196.050781 283.429688 194.785156 282.628906 194.867188 Z M 273.511719 205.378906 C 276 205.503906 278.449219 205.675781 280.9375 205.886719 C 281.742188 205.96875 281.742188 204.703125 280.9375 204.617188 C 272.203125 203.945312 263.421875 203.648438 254.644531 203.773438 C 252.152344 203.816406 249.707031 203.859375 247.214844 203.984375 C 246.414062 204.027344 246.414062 205.292969 247.214844 205.25 C 255.996094 204.871094 264.773438 204.914062 273.511719 205.378906 Z M 281.53125 214.285156 C 272.878906 212.089844 264.140625 210.191406 255.363281 208.542969 C 252.871094 208.078125 250.421875 207.617188 247.933594 207.191406 C 247.132812 207.066406 246.792969 208.289062 247.59375 208.417969 C 256.375 209.9375 265.152344 211.710938 273.847656 213.734375 C 276.296875 214.328125 278.746094 214.917969 281.191406 215.507812 C 281.996094 215.71875 282.332031 214.496094 281.53125 214.285156 Z M 281.53125 214.285156 " fill-opacity="1" fill-rule="nonzero"/></g><g fill="#000000" fill-opacity="1"><g transform="translate(32.568534, 290.647599)"><g><path d="M 24.21875 -3.6875 C 24.25 -3.28125 24.265625 -2.679688 24.265625 -1.890625 C 24.265625 -1.171875 24.203125 -0.664062 24.078125 -0.375 C 23.960938 -0.09375 23.785156 0.078125 23.546875 0.140625 C 23.304688 0.210938 22.894531 0.25 22.3125 0.25 L 21.953125 0.25 L 21.140625 0.203125 L 19.8125 0.25 C 17.695312 0.320312 14.570312 0.359375 10.4375 0.359375 C 6.519531 0.359375 3.398438 0.34375 1.078125 0.3125 L 1.078125 -0.875 C 1.316406 -6.5 1.4375 -12.160156 1.4375 -17.859375 C 1.4375 -19.535156 1.398438 -22.421875 1.328125 -26.515625 L 1.328125 -29.640625 C 1.296875 -30.210938 1.28125 -31.253906 1.28125 -32.765625 L 1.234375 -36.09375 C 1.703125 -36.257812 2.363281 -36.398438 3.21875 -36.515625 C 4.070312 -36.640625 4.925781 -36.703125 5.78125 -36.703125 C 6.738281 -36.703125 7.691406 -36.632812 8.640625 -36.5 C 9.597656 -36.363281 10.367188 -36.175781 10.953125 -35.9375 C 10.890625 -33.476562 10.859375 -31.515625 10.859375 -30.046875 C 10.859375 -27.992188 10.890625 -24.921875 10.953125 -20.828125 C 10.984375 -18.785156 11 -15.765625 11 -11.765625 L 11 -8.453125 C 12.125 -8.453125 13.507812 -8.398438 15.15625 -8.296875 L 17.859375 -8.1875 C 19.296875 -8.082031 20.644531 -8.03125 21.90625 -8.03125 C 22.789062 -8.03125 23.578125 -8.066406 24.265625 -8.140625 C 24.265625 -7.359375 24.25 -6.847656 24.21875 -6.609375 L 24.21875 -6.65625 C 24.144531 -5.726562 24.125 -5.0625 24.15625 -4.65625 Z M 24.21875 -3.6875 "/></g></g></g><g fill="#000000" fill-opacity="1"><g transform="translate(56.160597, 290.647599)"><g><path d="M 23.1875 0.15625 C 22.09375 0.394531 20.914062 0.515625 19.65625 0.515625 C 18.15625 0.515625 16.515625 0.328125 14.734375 -0.046875 C 14.503906 -0.703125 14.128906 -2.066406 13.609375 -4.140625 C 13.097656 -6.253906 12.691406 -7.65625 12.390625 -8.34375 L 11.359375 -8.390625 L 10.5 -8.34375 C 10.351562 -7.9375 10.128906 -6.929688 9.828125 -5.328125 C 9.585938 -3.992188 9.347656 -2.90625 9.109375 -2.0625 C 8.867188 -1.226562 8.53125 -0.472656 8.09375 0.203125 C 7.75 0.273438 7.234375 0.3125 6.546875 0.3125 C 6.242188 0.3125 5.582031 0.273438 4.5625 0.203125 C 1.59375 0.0664062 -0.0625 0 -0.40625 0 C -0.40625 -0.164062 -0.367188 -0.566406 -0.296875 -1.203125 C -0.234375 -1.835938 -0.132812 -2.546875 0 -3.328125 L 1.125 -9.78125 C 2.007812 -15.0625 2.851562 -19.664062 3.65625 -23.59375 C 4.457031 -27.519531 5.507812 -31.664062 6.8125 -36.03125 C 7.289062 -36.101562 7.9375 -36.140625 8.75 -36.140625 L 9.0625 -36.140625 C 11.28125 -36.140625 13.445312 -36.222656 15.5625 -36.390625 C 15.96875 -34.785156 16.34375 -33.207031 16.6875 -31.65625 C 17.03125 -30.101562 17.335938 -28.710938 17.609375 -27.484375 C 18.703125 -22.742188 19.4375 -19.585938 19.8125 -18.015625 Z M 12.484375 -14.890625 C 11.734375 -21.722656 11.378906 -25.140625 11.421875 -25.140625 L 11.359375 -25.640625 C 11.359375 -25.640625 11.328125 -25.234375 11.265625 -24.421875 C 11.160156 -21.859375 11.003906 -19.828125 10.796875 -18.328125 L 10.34375 -14.890625 Z M 12.484375 -14.890625 "/></g></g></g><g fill="#000000" fill-opacity="1"><g transform="translate(78.370911, 290.647599)"><g/></g></g><g fill="#000000" fill-opacity="1"><g transform="translate(88.606082, 290.647599)"><g><path d="M 24.109375 0.40625 C 23.015625 0.238281 21.835938 0.15625 20.578125 0.15625 C 20.441406 0.15625 20.117188 0.160156 19.609375 0.171875 C 19.097656 0.191406 17.832031 0.21875 15.8125 0.25 C 15.75 -1.59375 15.71875 -3.210938 15.71875 -4.609375 L 15.359375 -15.875 L 14.734375 -14.6875 C 14.222656 -13.769531 13.820312 -13.125 13.53125 -12.75 C 13.25 -12.375 12.9375 -12.1875 12.59375 -12.1875 C 11.84375 -12.21875 10.957031 -13.445312 9.9375 -15.875 C 9.894531 -15.53125 9.882812 -15.082031 9.90625 -14.53125 C 9.925781 -13.988281 9.9375 -13.5625 9.9375 -13.25 L 9.9375 -11.984375 C 9.9375 -8.671875 10.085938 -4.675781 10.390625 0 C 8.921875 0.238281 7.4375 0.359375 5.9375 0.359375 L 2.453125 0.25 L 1.734375 0.25 C 1.640625 0.25 1.570312 0.238281 1.53125 0.21875 C 1.5 0.207031 1.484375 0.171875 1.484375 0.109375 L 1.4375 -0.453125 C 1.363281 -1.753906 1.328125 -4.421875 1.328125 -8.453125 C 1.328125 -13.160156 1.378906 -22.066406 1.484375 -35.171875 C 1.992188 -35.335938 2.53125 -35.453125 3.09375 -35.515625 C 3.65625 -35.585938 4.46875 -35.625 5.53125 -35.625 L 8.03125 -35.578125 C 8.78125 -35.578125 9.34375 -35.59375 9.71875 -35.625 C 10.164062 -35.113281 10.5625 -34.460938 10.90625 -33.671875 C 11.25 -32.890625 11.878906 -31.289062 12.796875 -28.875 C 12.828125 -28.9375 12.9375 -29.273438 13.125 -29.890625 C 13.3125 -30.503906 14.109375 -32.5 15.515625 -35.875 C 15.953125 -35.78125 16.53125 -35.734375 17.25 -35.734375 C 17.789062 -35.734375 18.710938 -35.765625 20.015625 -35.828125 L 24.3125 -35.9375 Z M 24.109375 0.40625 "/></g></g></g><g fill="#000000" fill-opacity="1"><g transform="translate(114.245172, 290.647599)"><g><path d="M 23.1875 0.15625 C 22.09375 0.394531 20.914062 0.515625 19.65625 0.515625 C 18.15625 0.515625 16.515625 0.328125 14.734375 -0.046875 C 14.503906 -0.703125 14.128906 -2.066406 13.609375 -4.140625 C 13.097656 -6.253906 12.691406 -7.65625 12.390625 -8.34375 L 11.359375 -8.390625 L 10.5 -8.34375 C 10.351562 -7.9375 10.128906 -6.929688 9.828125 -5.328125 C 9.585938 -3.992188 9.347656 -2.90625 9.109375 -2.0625 C 8.867188 -1.226562 8.53125 -0.472656 8.09375 0.203125 C 7.75 0.273438 7.234375 0.3125 6.546875 0.3125 C 6.242188 0.3125 5.582031 0.273438 4.5625 0.203125 C 1.59375 0.0664062 -0.0625 0 -0.40625 0 C -0.40625 -0.164062 -0.367188 -0.566406 -0.296875 -1.203125 C -0.234375 -1.835938 -0.132812 -2.546875 0 -3.328125 L 1.125 -9.78125 C 2.007812 -15.0625 2.851562 -19.664062 3.65625 -23.59375 C 4.457031 -27.519531 5.507812 -31.664062 6.8125 -36.03125 C 7.289062 -36.101562 7.9375 -36.140625 8.75 -36.140625 L 9.0625 -36.140625 C 11.28125 -36.140625 13.445312 -36.222656 15.5625 -36.390625 C 15.96875 -34.785156 16.34375 -33.207031 16.6875 -31.65625 C 17.03125 -30.101562 17.335938 -28.710938 17.609375 -27.484375 C 18.703125 -22.742188 19.4375 -19.585938 19.8125 -18.015625 Z M 12.484375 -14.890625 C 11.734375 -21.722656 11.378906 -25.140625 11.421875 -25.140625 L 11.359375 -25.640625 C 11.359375 -25.640625 11.328125 -25.234375 11.265625 -24.421875 C 11.160156 -21.859375 11.003906 -19.828125 10.796875 -18.328125 L 10.34375 -14.890625 Z M 12.484375 -14.890625 "/></g></g></g><g fill="#000000" fill-opacity="1"><g transform="translate(136.455486, 290.647599)"><g><path d="M 23.796875 -24 C 22.367188 -23.769531 20.953125 -23.65625 19.546875 -23.65625 C 17.878906 -23.65625 16.414062 -23.84375 15.15625 -24.21875 C 15.21875 -24.550781 15.25 -24.785156 15.25 -24.921875 C 15.25 -25.710938 14.957031 -26.363281 14.375 -26.875 C 13.800781 -27.382812 13.15625 -27.640625 12.4375 -27.640625 C 11.925781 -27.640625 11.472656 -27.476562 11.078125 -27.15625 C 10.691406 -26.832031 10.460938 -26.347656 10.390625 -25.703125 C 10.285156 -25.390625 10.234375 -25.113281 10.234375 -24.875 L 10.28125 -24.421875 C 10.28125 -24.347656 10.28125 -24.3125 10.28125 -24.3125 C 10.519531 -23.59375 10.867188 -23.097656 11.328125 -22.828125 C 11.796875 -22.554688 12.351562 -22.367188 13 -22.265625 C 14.707031 -22.023438 16.429688 -21.394531 18.171875 -20.375 C 19.910156 -19.351562 21.3125 -18.160156 22.375 -16.796875 C 23.019531 -15.898438 23.53125 -14.914062 23.90625 -13.84375 C 24.28125 -12.769531 24.46875 -11.722656 24.46875 -10.703125 C 24.46875 -8.921875 24.078125 -7.195312 23.296875 -5.53125 C 22.398438 -3.613281 21.03125 -2.125 19.1875 -1.0625 C 17.351562 -0.0078125 15.34375 0.515625 13.15625 0.515625 C 10.9375 0.515625 8.773438 0.0820312 6.671875 -0.78125 C 4.578125 -1.65625 2.878906 -2.910156 1.578125 -4.546875 C 0.285156 -6.191406 -0.289062 -8.085938 -0.15625 -10.234375 L -0.15625 -10.703125 C 0.832031 -10.867188 1.925781 -10.953125 3.125 -10.953125 C 4.144531 -10.953125 5.015625 -10.9375 5.734375 -10.90625 C 6.378906 -10.875 7.539062 -10.859375 9.21875 -10.859375 C 9.25 -9.828125 9.5625 -9.019531 10.15625 -8.4375 C 10.757812 -7.863281 11.453125 -7.578125 12.234375 -7.578125 C 12.910156 -7.578125 13.476562 -7.796875 13.9375 -8.234375 C 14.40625 -8.679688 14.640625 -9.316406 14.640625 -10.140625 C 14.640625 -10.441406 14.625 -10.679688 14.59375 -10.859375 C 14.414062 -12.117188 13.816406 -13.003906 12.796875 -13.515625 C 11.773438 -14.023438 10.394531 -14.453125 8.65625 -14.796875 L 7.890625 -14.953125 C 6.421875 -15.222656 5.140625 -15.816406 4.046875 -16.734375 C 2.816406 -17.929688 1.894531 -19.210938 1.28125 -20.578125 C 0.664062 -21.941406 0.359375 -23.304688 0.359375 -24.671875 C 0.359375 -26.890625 1.03125 -28.976562 2.375 -30.9375 C 3.726562 -32.90625 5.476562 -34.332031 7.625 -35.21875 C 8.957031 -35.757812 10.613281 -36.03125 12.59375 -36.03125 C 15.15625 -36.03125 17.492188 -35.554688 19.609375 -34.609375 C 21.171875 -33.785156 22.410156 -32.707031 23.328125 -31.375 C 24.253906 -30.039062 24.71875 -28.472656 24.71875 -26.671875 C 24.71875 -25.984375 24.617188 -25.09375 24.421875 -24 Z M 23.796875 -24 "/></g></g></g><g fill="#000000" fill-opacity="1"><g transform="translate(161.275762, 290.647599)"><g><path d="M 10.390625 -27.1875 C 10.316406 -27.039062 10.226562 -25.960938 10.125 -23.953125 C 10.03125 -21.941406 9.984375 -19.894531 9.984375 -17.8125 C 9.984375 -15.695312 10.035156 -13.921875 10.140625 -12.484375 C 10.234375 -11.566406 10.503906 -10.671875 10.953125 -9.796875 C 11.398438 -8.929688 11.929688 -8.34375 12.546875 -8.03125 C 13.734375 -7.96875 14.632812 -8.515625 15.25 -9.671875 L 15.203125 -9.671875 C 15.503906 -10.316406 15.65625 -11.289062 15.65625 -12.59375 C 15.65625 -13.613281 15.726562 -14.414062 15.875 -15 C 16.71875 -14.863281 17.535156 -14.796875 18.328125 -14.796875 L 20.6875 -14.84375 C 21.90625 -14.84375 23.0625 -14.707031 24.15625 -14.4375 C 24.570312 -13.238281 24.78125 -11.992188 24.78125 -10.703125 C 24.78125 -8.753906 24.289062 -6.910156 23.3125 -5.171875 C 22.34375 -3.429688 21.003906 -2.015625 19.296875 -0.921875 C 17.585938 0.171875 15.691406 0.75 13.609375 0.8125 C 12.992188 0.914062 12.28125 0.96875 11.46875 0.96875 C 8.800781 0.96875 6.460938 0.375 4.453125 -0.8125 C 2.441406 -2.007812 1.316406 -3.800781 1.078125 -6.1875 C 0.898438 -9.601562 0.8125 -13.273438 0.8125 -17.203125 C 0.8125 -20.441406 0.832031 -23.101562 0.875 -25.1875 L 0.921875 -27.484375 C 0.890625 -27.992188 0.929688 -28.582031 1.046875 -29.25 C 1.171875 -29.914062 1.332031 -30.503906 1.53125 -31.015625 C 1.84375 -31.804688 2.242188 -32.59375 2.734375 -33.375 C 3.234375 -34.15625 3.753906 -34.800781 4.296875 -35.3125 C 5.015625 -35.894531 6.070312 -36.390625 7.46875 -36.796875 C 8.800781 -37.210938 10.1875 -37.421875 11.625 -37.421875 C 13.9375 -37.421875 16.117188 -36.878906 18.171875 -35.796875 C 20.222656 -34.722656 21.859375 -33.253906 23.078125 -31.390625 C 24.304688 -29.535156 24.921875 -27.519531 24.921875 -25.34375 C 24.921875 -24.039062 24.6875 -22.742188 24.21875 -21.453125 C 22.78125 -21.140625 21.582031 -20.984375 20.625 -20.984375 C 19.332031 -20.984375 17.539062 -21.207031 15.25 -21.65625 L 15.09375 -23.59375 C 15.03125 -25.164062 14.835938 -26.351562 14.515625 -27.15625 C 14.191406 -27.957031 13.5 -28.34375 12.4375 -28.3125 C 12.40625 -28.3125 12.363281 -28.300781 12.3125 -28.28125 C 12.257812 -28.257812 12.179688 -28.25 12.078125 -28.25 L 12.125 -28.25 C 11.070312 -28.082031 10.492188 -27.726562 10.390625 -27.1875 Z M 10.390625 -27.1875 "/></g></g></g><g fill="#000000" fill-opacity="1"><g transform="translate(186.249573, 290.647599)"><g><path d="M 23.953125 -27.125 C 24.054688 -26.070312 24.109375 -25 24.109375 -23.90625 L 24.0625 -22.984375 L 24.0625 -22.0625 C 23.988281 -20.9375 23.953125 -19.28125 23.953125 -17.09375 C 23.953125 -14.675781 23.898438 -12.832031 23.796875 -11.5625 L 23.65625 -9.875 C 23.476562 -7.113281 22.773438 -4.757812 21.546875 -2.8125 C 21.035156 -2.09375 20.265625 -1.460938 19.234375 -0.921875 C 18.210938 -0.378906 17.09375 0.0625 15.875 0.40625 C 14.601562 0.78125 13.117188 0.96875 11.421875 0.96875 C 10.628906 0.96875 10.082031 0.953125 9.78125 0.921875 C 8.101562 0.785156 6.609375 0.421875 5.296875 -0.171875 C 3.984375 -0.773438 3.019531 -1.65625 2.40625 -2.8125 C 1.582031 -4.351562 1.140625 -6.28125 1.078125 -8.59375 L 0.96875 -10.234375 C 0.9375 -10.503906 0.921875 -11.066406 0.921875 -11.921875 C 0.753906 -14.722656 0.671875 -17.40625 0.671875 -19.96875 C 0.671875 -21.53125 0.71875 -23.097656 0.8125 -24.671875 C 0.914062 -26.378906 1.210938 -28.039062 1.703125 -29.65625 C 2.203125 -31.28125 2.96875 -32.707031 4 -33.9375 L 5.125 -34.546875 C 7.300781 -35.609375 9.6875 -36.140625 12.28125 -36.140625 C 13.914062 -36.140625 15.457031 -35.925781 16.90625 -35.5 C 18.363281 -35.070312 19.640625 -34.445312 20.734375 -33.625 C 21.921875 -32.539062 22.703125 -31.46875 23.078125 -30.40625 C 23.492188 -29.3125 23.785156 -28.21875 23.953125 -27.125 Z M 16.015625 -21.546875 L 15.8125 -24.21875 C 15.75 -25.164062 15.519531 -26.003906 15.125 -26.734375 C 14.726562 -27.472656 14.222656 -28 13.609375 -28.3125 C 13.335938 -28.40625 13.066406 -28.453125 12.796875 -28.453125 C 11.972656 -28.453125 11.171875 -28.179688 10.390625 -27.640625 C 9.984375 -27.296875 9.582031 -26.804688 9.1875 -26.171875 C 8.789062 -25.546875 8.492188 -24.910156 8.296875 -24.265625 C 7.953125 -22.765625 7.78125 -20.851562 7.78125 -18.53125 C 7.78125 -17.375 7.796875 -16.503906 7.828125 -15.921875 L 7.828125 -15.96875 C 7.960938 -15.289062 8.066406 -14.382812 8.140625 -13.25 L 8.1875 -12.546875 C 8.320312 -10.835938 8.507812 -9.570312 8.75 -8.75 L 8.75 -8.796875 C 9.0625 -8.117188 9.515625 -7.597656 10.109375 -7.234375 C 10.703125 -6.878906 11.34375 -6.703125 12.03125 -6.703125 C 12.570312 -6.703125 13.125 -6.828125 13.6875 -7.078125 C 14.25 -7.335938 14.738281 -7.707031 15.15625 -8.1875 C 15.488281 -8.632812 15.695312 -9.007812 15.78125 -9.3125 C 15.875 -9.625 15.921875 -10.101562 15.921875 -10.75 C 15.921875 -11.332031 15.9375 -11.757812 15.96875 -12.03125 L 16.015625 -12.6875 L 16.078125 -13.671875 L 16.078125 -14.390625 L 16.125 -15.359375 L 16.125 -17.8125 L 16.015625 -21.296875 Z M 16.015625 -21.546875 "/></g></g></g><g fill="#000000" fill-opacity="1"><g transform="translate(210.967493, 290.647599)"><g><path d="M 22.875 -35.828125 C 22.945312 -34.671875 22.984375 -33.582031 22.984375 -32.5625 C 22.984375 -30.582031 22.863281 -28.804688 22.625 -27.234375 C 21.5 -27.429688 20.613281 -27.53125 19.96875 -27.53125 L 17.5625 -27.59375 C 16.664062 -27.59375 16.21875 -27.539062 16.21875 -27.4375 C 16.15625 -26.957031 16.125 -25.953125 16.125 -24.421875 C 16.125 -21.410156 16.242188 -13.320312 16.484375 -0.15625 C 15.492188 0.0195312 14.332031 0.109375 13 0.109375 L 11.515625 0.109375 C 9.804688 0.109375 8.238281 0.222656 6.8125 0.453125 C 6.707031 0.285156 6.628906 -0.0546875 6.578125 -0.578125 C 6.523438 -1.109375 6.515625 -1.597656 6.546875 -2.046875 L 6.546875 -4.5625 L 6.609375 -9.15625 C 6.609375 -15.375 6.46875 -21.429688 6.1875 -27.328125 C 5.8125 -27.503906 5.285156 -27.59375 4.609375 -27.59375 L 2.5625 -27.53125 C 1.394531 -27.53125 0.554688 -27.617188 0.046875 -27.796875 C -0.0546875 -28.003906 -0.140625 -28.566406 -0.203125 -29.484375 C -0.273438 -30.398438 -0.3125 -31.441406 -0.3125 -32.609375 C -0.3125 -34.316406 -0.289062 -35.546875 -0.25 -36.296875 L 1.9375 -36.296875 L 3.9375 -36.34375 L 6.8125 -36.34375 L 9.78125 -36.390625 C 14.863281 -36.390625 19.007812 -36.203125 22.21875 -35.828125 Z M 22.875 -35.828125 "/></g></g></g><g fill="#000000" fill-opacity="1"><g transform="translate(233.638375, 290.647599)"><g><path d="M 12.125 -35.78125 C 12.125 -31.789062 12.078125 -27.765625 11.984375 -23.703125 C 11.835938 -18.304688 11.765625 -14.054688 11.765625 -10.953125 C 11.765625 -7.367188 11.867188 -3.800781 12.078125 -0.25 C 11.566406 0.257812 10.238281 0.515625 8.09375 0.515625 C 6.863281 0.515625 5.957031 0.492188 5.375 0.453125 L 4.765625 0.40625 L 3.84375 0.359375 C 3.15625 0.359375 2.285156 0.492188 1.234375 0.765625 C 1.429688 -2.203125 1.53125 -5.359375 1.53125 -8.703125 C 1.53125 -10.035156 1.5 -12 1.4375 -14.59375 L 1.375 -17.5625 C 1.238281 -21.175781 1.171875 -24.109375 1.171875 -26.359375 C 1.171875 -29.734375 1.328125 -33.0625 1.640625 -36.34375 C 2.078125 -36.414062 2.554688 -36.453125 3.078125 -36.453125 C 3.347656 -36.453125 3.71875 -36.425781 4.1875 -36.375 C 4.664062 -36.320312 5.234375 -36.3125 5.890625 -36.34375 C 7.660156 -36.238281 9.078125 -36.203125 10.140625 -36.234375 L 12.125 -36.234375 Z M 12.125 -35.78125 "/></g></g></g><g fill="#000000" fill-opacity="1"><g transform="translate(246.944099, 290.647599)"><g><path d="M 24.5625 -4.5625 C 24.5625 -2.8125 24.375 -1.253906 24 0.109375 C 22.5 0.109375 20.285156 0.140625 17.359375 0.203125 L 10.640625 0.25 C 7.609375 0.25 4.570312 0.148438 1.53125 -0.046875 C 1.570312 -1.140625 1.519531 -5.390625 1.375 -12.796875 C 1.28125 -16.992188 1.234375 -20.21875 1.234375 -22.46875 C 1.234375 -27.144531 1.351562 -31.5 1.59375 -35.53125 L 6.09375 -35.671875 C 11.144531 -35.878906 15 -35.984375 17.65625 -35.984375 C 19.945312 -35.984375 22.164062 -35.898438 24.3125 -35.734375 C 24.445312 -35.015625 24.515625 -34.175781 24.515625 -33.21875 C 24.515625 -32.707031 24.484375 -31.875 24.421875 -30.71875 C 24.347656 -29.625 24.3125 -28.769531 24.3125 -28.15625 C 22.269531 -27.707031 19.984375 -27.484375 17.453125 -27.484375 L 10.796875 -27.4375 C 10.628906 -25.832031 10.546875 -24.5 10.546875 -23.4375 C 10.546875 -22.625 10.648438 -21.910156 10.859375 -21.296875 L 14.234375 -21.703125 C 14.710938 -21.703125 15.425781 -21.664062 16.375 -21.59375 L 17.046875 -21.546875 C 17.210938 -20.523438 17.296875 -19.414062 17.296875 -18.21875 L 17.203125 -14.125 C 16.109375 -13.820312 14.640625 -13.671875 12.796875 -13.671875 L 11.46875 -13.71875 C 11.226562 -13.71875 11.070312 -13.679688 11 -13.609375 L 10.796875 -10.953125 C 10.796875 -9.554688 10.863281 -8.394531 11 -7.46875 C 12.78125 -7.46875 14.503906 -7.414062 16.171875 -7.3125 C 16.753906 -7.28125 17.472656 -7.25 18.328125 -7.21875 C 19.179688 -7.1875 20.1875 -7.171875 21.34375 -7.171875 L 24.46875 -7.265625 C 24.53125 -5.691406 24.5625 -4.789062 24.5625 -4.5625 Z M 24.5625 -4.5625 "/></g></g></g><g fill="#000000" fill-opacity="1"><g transform="translate(271.559675, 290.647599)"><g><path d="M 14.28125 -4.296875 C 12.132812 -9.003906 10.71875 -12.265625 10.03125 -14.078125 L 10.03125 -4.25 C 10.03125 -2.132812 10.046875 -0.679688 10.078125 0.109375 C 9.160156 0.378906 8.15625 0.515625 7.0625 0.515625 C 6.71875 0.515625 6.207031 0.476562 5.53125 0.40625 C 4.78125 0.34375 4.234375 0.3125 3.890625 0.3125 L 1.375 0.203125 L 1.375 -3.640625 C 1.375 -5.816406 1.34375 -8.921875 1.28125 -12.953125 C 1.25 -14.960938 1.234375 -18.015625 1.234375 -22.109375 C 1.234375 -27.609375 1.382812 -32.21875 1.6875 -35.9375 C 2.613281 -36.175781 3.640625 -36.296875 4.765625 -36.296875 C 5.515625 -36.296875 6.425781 -36.222656 7.5 -36.078125 C 8.570312 -35.941406 9.3125 -35.738281 9.71875 -35.46875 C 10.195312 -34.582031 10.785156 -33.34375 11.484375 -31.75 C 12.191406 -30.164062 12.867188 -28.59375 13.515625 -27.03125 L 15.5625 -22.3125 C 15.488281 -24.707031 15.453125 -27.523438 15.453125 -30.765625 C 15.453125 -33.390625 15.472656 -35.195312 15.515625 -36.1875 C 16.910156 -36.457031 18.394531 -36.59375 19.96875 -36.59375 C 21.289062 -36.59375 22.671875 -36.441406 24.109375 -36.140625 L 24.109375 0.15625 C 24.003906 0.15625 23.800781 0.207031 23.5 0.3125 C 23.15625 0.445312 22.554688 0.515625 21.703125 0.515625 C 21.535156 0.546875 20.628906 0.492188 18.984375 0.359375 C 18.578125 0.328125 18.054688 0.289062 17.421875 0.25 C 16.796875 0.21875 16.429688 0.21875 16.328125 0.25 Z M 14.28125 -4.296875 "/></g></g></g><g fill="#000000" fill-opacity="1"><g transform="translate(297.045231, 290.647599)"><g><path d="M 20.734375 -31.734375 C 22.335938 -29.210938 23.394531 -26.671875 23.90625 -24.109375 L 23.90625 -24.15625 C 24.175781 -23.300781 24.347656 -22.191406 24.421875 -20.828125 C 24.347656 -19.804688 24.3125 -19.039062 24.3125 -18.53125 L 24.265625 -17.703125 C 24.265625 -17.472656 24.226562 -16.671875 24.15625 -15.296875 C 24.09375 -13.929688 23.925781 -12.585938 23.65625 -11.265625 C 23 -9.347656 22.097656 -7.476562 20.953125 -5.65625 C 19.816406 -3.832031 18.460938 -1.945312 16.890625 0 C 14.023438 0.0703125 11.671875 0.109375 9.828125 0.109375 L 6.140625 0.15625 L 2.15625 0.203125 C 1.539062 -4.265625 1.234375 -9.894531 1.234375 -16.6875 C 1.234375 -19.65625 1.25 -21.875 1.28125 -23.34375 C 1.3125 -24.675781 1.328125 -26.960938 1.328125 -30.203125 C 1.328125 -31.015625 1.296875 -32.242188 1.234375 -33.890625 L 1.171875 -35.421875 L 1.53125 -35.46875 C 3.34375 -35.945312 5.441406 -36.1875 7.828125 -36.1875 L 9.15625 -36.140625 L 10.546875 -36.140625 C 10.984375 -36.109375 11.664062 -36.09375 12.59375 -36.09375 C 13.507812 -36.09375 14.191406 -36.109375 14.640625 -36.140625 C 15.898438 -35.796875 17.109375 -35.1875 18.265625 -34.3125 C 19.429688 -33.445312 20.351562 -32.453125 21.03125 -31.328125 Z M 16.078125 -17.5625 C 16.078125 -18.175781 16.007812 -18.769531 15.875 -19.34375 C 15.59375 -20.78125 15.265625 -21.953125 14.890625 -22.859375 C 14.515625 -23.765625 13.9375 -24.351562 13.15625 -24.625 L 13.25 -24.625 C 12.4375 -24.6875 11.828125 -24.71875 11.421875 -24.71875 C 10.734375 -24.71875 10.285156 -24.6875 10.078125 -24.625 C 10.148438 -23.394531 10.1875 -22.234375 10.1875 -21.140625 L 10.1875 -19.8125 L 10.140625 -18.421875 C 10.097656 -17.640625 10.078125 -16.460938 10.078125 -14.890625 C 10.078125 -13.390625 10.0625 -12.25 10.03125 -11.46875 C 10.539062 -11.257812 10.898438 -11.15625 11.109375 -11.15625 L 11.765625 -11.15625 C 12.316406 -11.15625 12.710938 -11.207031 12.953125 -11.3125 C 13.492188 -11.445312 14.109375 -12.0625 14.796875 -13.15625 C 15.648438 -14.445312 16.078125 -15.914062 16.078125 -17.5625 Z M 16.078125 -17.5625 "/></g></g></g><g fill="#000000" fill-opacity="1"><g transform="translate(321.712008, 290.647599)"><g><path d="M 23.1875 0.15625 C 22.09375 0.394531 20.914062 0.515625 19.65625 0.515625 C 18.15625 0.515625 16.515625 0.328125 14.734375 -0.046875 C 14.503906 -0.703125 14.128906 -2.066406 13.609375 -4.140625 C 13.097656 -6.253906 12.691406 -7.65625 12.390625 -8.34375 L 11.359375 -8.390625 L 10.5 -8.34375 C 10.351562 -7.9375 10.128906 -6.929688 9.828125 -5.328125 C 9.585938 -3.992188 9.347656 -2.90625 9.109375 -2.0625 C 8.867188 -1.226562 8.53125 -0.472656 8.09375 0.203125 C 7.75 0.273438 7.234375 0.3125 6.546875 0.3125 C 6.242188 0.3125 5.582031 0.273438 4.5625 0.203125 C 1.59375 0.0664062 -0.0625 0 -0.40625 0 C -0.40625 -0.164062 -0.367188 -0.566406 -0.296875 -1.203125 C -0.234375 -1.835938 -0.132812 -2.546875 0 -3.328125 L 1.125 -9.78125 C 2.007812 -15.0625 2.851562 -19.664062 3.65625 -23.59375 C 4.457031 -27.519531 5.507812 -31.664062 6.8125 -36.03125 C 7.289062 -36.101562 7.9375 -36.140625 8.75 -36.140625 L 9.0625 -36.140625 C 11.28125 -36.140625 13.445312 -36.222656 15.5625 -36.390625 C 15.96875 -34.785156 16.34375 -33.207031 16.6875 -31.65625 C 17.03125 -30.101562 17.335938 -28.710938 17.609375 -27.484375 C 18.703125 -22.742188 19.4375 -19.585938 19.8125 -18.015625 Z M 12.484375 -14.890625 C 11.734375 -21.722656 11.378906 -25.140625 11.421875 -25.140625 L 11.359375 -25.640625 C 11.359375 -25.640625 11.328125 -25.234375 11.265625 -24.421875 C 11.160156 -21.859375 11.003906 -19.828125 10.796875 -18.328125 L 10.34375 -14.890625 Z M 12.484375 -14.890625 "/></g></g></g></svg>